{"title":"Men In Black 3 2012 DVDRip x264 AAC-UNiQUE","uid":7595174,"size":1507726245,"categoryP":"video","categoryS":"movies","magnet":"?xt=urn:btih:e7949ea4e849c8093be5652be18f62ea94f3c1d0&amp;dn=Men+In+Black+3+2012+DVDRip+x264+AAC-UNiQUE&amp;tr=udp%3A%2F%2Ftracker.openbittorrent.com%3A80&amp;tr=udp%3A%2F%2Fopen.demonii.com%3A1337&amp;tr=udp%3A%2F%2Ftracker.coppersurfer.tk%3A6969&amp;tr=udp%3A%2F%2Fexodus.desync.com%3A6969","seeders":0,"leechers":0,"uploader":"hiest","files":-1,"time":1346671723,"description":"##     ## ##    ## ####  #######  ##     ## ######## \n##     ## ###   ##  ##  ##     ## ##     ## ##       \n##     ## ####  ##  ##  ##     ## ##     ## ##       \n##     ## ## ## ##  ##  ##     ## ##     ## ######   \n##     ## ##  ####  ##  ##  ## ## ##     ## ##       \n##     ## ##   ###  ##  ##    ##  ##     ## ##       \n #######  ##    ## ####  ##### ##  #######  ######## \n\n\n#############Credits To DiNGiE &amp; Unique#############\n\n\nGeneral\nComplete name : Men In Black 3 2012 DVDRip x264 AAC-UNiQUE.mp4\nFormat : MPEG-4\nFormat profile : Base Media\nCodec ID : isom\nFile size : 1.38 GiB\nDuration : 1h 45mn\nOverall bit rate mode : Variable\nOverall bit rate : 1 868 Kbps\nEncoded date : UTC 2012-09-03 08:37:29\n\nVideo\nID : 1\nFormat : AVC\nFormat/Info : Advanced Video Codec\nFormat profile : &lt;a class=&quot;__cf_email__&quot; href=&quot;/cdn-cgi/l/email-protection&quot; data-cfemail=&quot;cd85a4aaa58d81f9e3fc&quot;&gt;[email&amp;#160;protected]&lt;/a&gt;&lt;script data-cfhash='f9e31' type=&quot;text/javascript&quot;&gt;\n/* &lt;![CDATA[ */!function(){try{var t=&quot;currentScript&quot;in document?document.currentScript:function(){for(var t=document.getElementsByTagName(&quot;script&quot;),e=t.length;e--;)if(t[e].getAttribute(&quot;data-cfhash&quot;))return t[e]}();if(t&amp;&amp;t.previousSibling){var e,r,n,i,c=t.previousSibling,a=c.getAttribute(&quot;data-cfemail&quot;);if(a){for(e=&quot;&quot;,r=parseInt(a.substr(0,2),16),n=2;a.length-n;n+=2)i=parseInt(a.substr(n,2),16)^r,e+=String.fromCharCode(i);e=document.createTextNode(e),c.parentNode.replaceChild(e,c)}t.parentNode.removeChild(t);}}catch(u){}}()/* ]]&gt; */&lt;/script&gt;\nFormat settings, CABAC : Yes\nFormat settings, ReFrames : 3 frames\nCodec ID : avc1\nCodec ID/Info : Advanced Video Coding\nDuration : 1h 45mn\nBit rate mode : Variable\nBit rate : 1 522 Kbps\nMaximum bit rate : 40.0 Mbps\nWidth : 720 pixels\nHeight : 384 pixels\nDisplay aspect ratio : 1.85:1\nFrame rate mode : Constant\nFrame rate : 23.976 fps\nColor space : YUV\nChroma subsampling : 4:2:0\nBit depth : 8 bits\nScan type : Progressive\nBits/(Pixel*Frame) : 0.230\nStream size : 1.12 GiB (81%)\nWriting library : x264 core 125 r2208 d9d2288\n\nAudio\nID : 2\nFormat : AAC\nFormat/Info : Advanced Audio Codec\nFormat profile : LC\nCodec ID : 40\nDuration : 1h 45mn\nBit rate mode : Variable\nBit rate : 342 Kbps\nMaximum bit rate : 388 Kbps\nChannel(s) : 6 channels\nChannel positions : Front: L C R, Side: L R, LFE\nSampling rate : 48.0 KHz\nCompression mode : Lossy\nStream size : 259 MiB (18%)\nLanguage : English\nEncoded date : UTC 2012-09-03 08:37:54\n\nSource : REFiLL VOBS - Thanks! \n\nStoryline\nAgent J travels in time to MIB's early years in the 1960s, to stop an alien from assassinating his friend Agent K and changing history.\n\niMDB: &lt;a href=&quot;\nhttp://www.imdb.com/title/tt1409024&quot; rel=&quot;nofollow&quot; target=&quot;_NEW&quot;&gt;\nhttp://www.imdb.com/title/tt1409024&lt;/a&gt;\n\nScreen Shots:\n   &lt;a href=&quot;\nhttp://i.imgrz.com/LMViA.png&quot; rel=&quot;nofollow&quot; target=&quot;_NEW&quot;&gt;\nhttp://i.imgrz.com/LMViA.png&lt;/a&gt;\n &lt;a href=&quot;\nhttp://i.imgrz.com/6Irog.png&quot; rel=&quot;nofollow&quot; target=&quot;_NEW&quot;&gt;\nhttp://i.imgrz.com/6Irog.png&lt;/a&gt;\n &lt;a href=&quot;\nhttp://i.imgrz.com/FCdm5.png&quot; rel=&quot;nofollow&quot; target=&quot;_NEW&quot;&gt;\nhttp://i.imgrz.com/FCdm5.png&lt;/a&gt;\n &lt;a href=&quot;\nhttp://i.imgrz.com/Lfac3.png&quot; rel=&quot;nofollow&quot; target=&quot;_NEW&quot;&gt;\nhttp://i.imgrz.com/Lfac3.png&lt;/a&gt;\n &lt;a href=&quot;\nhttp://i.imgrz.com/dYQx.png&quot; rel=&quot;nofollow&quot; target=&quot;_NEW&quot;&gt;\nhttp://i.imgrz.com/dYQx.png&lt;/a&gt;\n &lt;a href=&quot;\nhttp://i.imgrz.com/pSEO.png&quot; rel=&quot;nofollow&quot; target=&quot;_NEW&quot;&gt;\nhttp://i.imgrz.com/pSEO.png&lt;/a&gt;\n &lt;a href=&quot;\nhttp://i.imgrz.com/vYdek.png&quot; rel=&quot;nofollow&quot; target=&quot;_NEW&quot;&gt;\nhttp://i.imgrz.com/vYdek.png&lt;/a&gt;\n\nIf screenshots are not visible then look at\nthe comment for screenshots\n\n\n#############Credits To DiNGiE &amp; Unique#############\n\n\n##     ## ##    ## ####  #######  ##     ## ######## \n##     ## ###   ##  ##  ##     ## ##     ## ##       \n##     ## ####  ##  ##  ##     ## ##     ## ##       \n##     ## ## ## ##  ##  ##     ## ##     ## ######   \n##     ## ##  ####  ##  ##  ## ## ##     ## ##       \n##     ## ##   ###  ##  ##    ##  ##     ## ##       \n #######  ##    ## ####  ##### ##  #######  ######## ","torrent":{"xt":"urn:btih:e7949ea4e849c8093be5652be18f62ea94f3c1d0","amp;dn":"Men+In+Black+3+2012+DVDRip+x264+AAC-UNiQUE","amp;tr":["udp%3A%2F%2Ftracker.openbittorrent.com%3A80","udp%3A%2F%2Fopen.demonii.com%3A1337","udp%3A%2F%2Ftracker.coppersurfer.tk%3A6969","udp%3A%2F%2Fexodus.desync.com%3A6969"],"infoHash":"e7949ea4e849c8093be5652be18f62ea94f3c1d0","infoHashBuffer":{"type":"Buffer","data":[231,148,158,164,232,73,200,9,59,229,101,43,225,143,98,234,148,243,193,208]},"announce":[],"urlList":[]}}